<svg width="176" height="115" viewBox="0 0 176 115" fill="none" xmlns="http://www.w3.org/2000/svg">
<g clip-path="url(#clip0_837_4568)">
<circle cx="90.8325" cy="56.2595" r="51" fill="#E5E6EB"/>
<g clip-path="url(#clip1_837_4568)">
<path d="M69.8325 36.7595V31.7595L73.3325 30.7595L76.3325 32.2595L69.8325 36.7595Z" fill="#77797F"/>
<path d="M54.8325 46.3804C54.8325 44.1535 56.0659 42.1098 58.0361 41.0719L106.434 15.5764C108.432 14.524 110.833 15.9727 110.833 18.2307V88.2595L63.629 113.126C59.6334 115.23 54.8325 112.333 54.8325 107.817V46.3804Z" fill="#86909C"/>
<path d="M58.8325 48.8804C58.8325 46.6535 60.0659 44.6098 62.0361 43.5719L110.434 18.0764C112.432 17.024 114.833 18.4727 114.833 20.7307V88.9491C114.833 90.0625 114.216 91.0844 113.231 91.6033L64.6968 117.17C62.0331 118.573 58.8325 116.642 58.8325 113.631V48.8804Z" fill="#C9CDD4"/>
</g>
<g filter="url(#filter0_d_837_4568)">
<path d="M66.4753 101.26C61.547 92.3889 61.6382 61.8221 61.961 48.3383C61.9698 47.9735 62.1768 47.6554 62.501 47.4879L109.981 22.9576C110.62 22.6276 111.386 23.0478 111.426 23.7657C112.176 37.0391 112.322 70.7994 113.475 74.2595C114.675 77.8595 118.333 80.7595 120.833 81.2595L74.9751 107.76C73.9752 107.26 69.3632 106.458 66.4753 101.26Z" fill="white"/>
</g>
<path d="M68.8325 58.0115C68.8325 57.2832 69.2284 56.6124 69.8661 56.2605L78.3493 51.5782C79.0158 51.2103 79.8325 51.6924 79.8325 52.4537V60.5076C79.8325 61.2359 79.4366 61.9066 78.799 62.2586L70.3157 66.9409C69.6493 67.3087 68.8325 66.8266 68.8325 66.0654V58.0115Z" fill="url(#paint0_linear_837_4568)"/>
<path d="M81.8325 50.856C81.8325 50.4886 82.034 50.1507 82.3574 49.9761L105.357 37.5561C106.024 37.1963 106.833 37.6788 106.833 38.436V40.663C106.833 41.0305 106.631 41.3683 106.308 41.5429L83.3077 53.9629C82.6414 54.3227 81.8325 53.8402 81.8325 53.083V50.856Z" fill="url(#paint1_linear_837_4568)"/>
<path d="M81.8325 58.856C81.8325 58.4886 82.034 58.1507 82.3574 57.9761L105.357 45.5561C106.024 45.1963 106.833 45.6788 106.833 46.436V48.663C106.833 49.0305 106.631 49.3683 106.308 49.5429L83.3077 61.9629C82.6414 62.3227 81.8325 61.8402 81.8325 61.083V58.856Z" fill="url(#paint2_linear_837_4568)"/>
<path d="M82.8325 66.856C82.8325 66.4886 83.034 66.1507 83.3574 65.9761L106.357 53.5561C107.024 53.1963 107.833 53.6788 107.833 54.436V56.663C107.833 57.0305 107.631 57.3683 107.308 57.5429L84.3077 69.9629C83.6414 70.3227 82.8325 69.8402 82.8325 69.083V66.856Z" fill="url(#paint3_linear_837_4568)"/>
<path d="M83.8325 74.856C83.8325 74.4886 84.034 74.1507 84.3574 73.9761L107.357 61.5561C108.024 61.1963 108.833 61.6788 108.833 62.436V64.663C108.833 65.0305 108.631 65.3683 108.308 65.5429L85.3077 77.9629C84.6414 78.3227 83.8325 77.8402 83.8325 77.083V74.856Z" fill="url(#paint4_linear_837_4568)"/>
<path d="M72.4967 32.1233C71.452 31.9565 70.14 31.7595 69.8325 31.7595L93.3325 19.7595L96.6046 20.5775C97.0359 20.6854 97.3443 21.065 97.3614 21.5093L97.808 33.1208C97.8229 33.5102 97.6103 33.8729 97.2632 34.05L74.787 45.5174C74.1216 45.8569 73.3325 45.3736 73.3325 44.6267V33.1066C73.3325 32.6178 72.9795 32.2004 72.4967 32.1233Z" fill="url(#paint5_linear_837_4568)"/>
<path d="M144.848 11.4822L147.692 11.4371C151.005 11.3845 153.734 14.0279 153.786 17.3412L153.833 20.2595L150.988 20.3046C147.675 20.3572 144.946 17.7138 144.894 14.4005L144.848 11.4822Z" fill="#E5E6EB"/>
<path d="M35.1621 87.283L35.0941 88.1758C34.8425 91.4799 31.9601 93.9545 28.6559 93.7029L22.8325 93.2595L22.9005 92.3667C23.1521 89.0626 26.0346 86.588 29.3387 86.8396L35.1621 87.283Z" fill="#E5E6EB"/>
<path d="M7.75146 65.2498C5.58697 66.9118 2.48495 66.5045 0.822921 64.34L-1.58255e-05 63.2682C2.16448 61.6062 5.2665 62.0135 6.92853 64.178L7.75146 65.2498Z" fill="#E5E6EB"/>
<path d="M21.2827 54.7751C18.9876 54.9625 16.9751 53.2539 16.7878 50.9587L16.6768 49.5992C18.9719 49.4118 20.9843 51.1205 21.1717 53.4156L21.2827 54.7751Z" fill="#E5E6EB"/>
<path d="M134.833 5.17749L135.103 3.91172C135.565 1.75136 137.69 0.374309 139.851 0.835986L141.833 1.25952L141.562 2.52529C141.1 4.68565 138.975 6.0627 136.814 5.60103L134.833 5.17749Z" fill="#E5E6EB"/>
</g>
<defs>
<filter id="filter0_d_837_4568" x="57.8325" y="22.8433" width="67" height="92.9163" filterUnits="userSpaceOnUse" color-interpolation-filters="sRGB">
<feFlood flood-opacity="0" result="BackgroundImageFix"/>
<feColorMatrix in="SourceAlpha" type="matrix" values="0 0 0 0 0 0 0 0 0 0 0 0 0 0 0 0 0 0 127 0" result="hardAlpha"/>
<feOffset dy="4"/>
<feGaussianBlur stdDeviation="2"/>
<feComposite in2="hardAlpha" operator="out"/>
<feColorMatrix type="matrix" values="0 0 0 0 0 0 0 0 0 0 0 0 0 0 0 0 0 0 0.06 0"/>
<feBlend mode="normal" in2="BackgroundImageFix" result="effect1_dropShadow_837_4568"/>
<feBlend mode="normal" in="SourceGraphic" in2="effect1_dropShadow_837_4568" result="shape"/>
</filter>
<linearGradient id="paint0_linear_837_4568" x1="79.8325" y1="56.7595" x2="68.8325" y2="63.2595" gradientUnits="userSpaceOnUse">
<stop stop-color="#F2F3F5"/>
<stop offset="1" stop-color="#C9CDD4"/>
</linearGradient>
<linearGradient id="paint1_linear_837_4568" x1="106.833" y1="43.1125" x2="93.9032" y2="59.5115" gradientUnits="userSpaceOnUse">
<stop stop-color="#F2F3F5"/>
<stop offset="1" stop-color="#C9CDD4"/>
</linearGradient>
<linearGradient id="paint2_linear_837_4568" x1="106.833" y1="51.1125" x2="93.9032" y2="67.5115" gradientUnits="userSpaceOnUse">
<stop stop-color="#F2F3F5"/>
<stop offset="1" stop-color="#C9CDD4"/>
</linearGradient>
<linearGradient id="paint3_linear_837_4568" x1="107.833" y1="59.1125" x2="94.9032" y2="75.5115" gradientUnits="userSpaceOnUse">
<stop stop-color="#F2F3F5"/>
<stop offset="1" stop-color="#C9CDD4"/>
</linearGradient>
<linearGradient id="paint4_linear_837_4568" x1="108.833" y1="67.1125" x2="95.9032" y2="83.5115" gradientUnits="userSpaceOnUse">
<stop stop-color="#F2F3F5"/>
<stop offset="1" stop-color="#C9CDD4"/>
</linearGradient>
<linearGradient id="paint5_linear_837_4568" x1="79.8325" y1="25.7595" x2="86.3325" y2="39.7595" gradientUnits="userSpaceOnUse">
<stop stop-color="#E5E6EB"/>
<stop offset="0.201784" stop-color="#F7F8FA"/>
<stop offset="0.295" stop-color="#E5E6EB"/>
<stop offset="1" stop-color="#C9CDD4"/>
</linearGradient>
<clipPath id="clip0_837_4568">
<rect width="176" height="115" fill="white"/>
</clipPath>
<clipPath id="clip1_837_4568">
<rect x="39.8325" y="5.25952" width="102" height="102" rx="51" fill="white"/>
</clipPath>
</defs>
</svg>
