<svg xmlns="http://www.w3.org/2000/svg" width="14" height="14" viewBox="0 0 14 14" fill="none">
  <g clip-path="url(#clip0_1591_3481)">
    <path d="M6.62924 2.17968L5.47141 3.3375C5.31039 3.49853 5.04933 3.49853 4.88829 3.33752C4.88829 3.33752 4.88828 3.33751 4.88828 3.3375L4.92363 3.30215L6.62924 2.17968ZM6.62924 2.17968V5.25572C6.62924 5.36318 6.71643 5.45037 6.82389 5.45037H7.25906C7.36652 5.45037 7.45371 5.36318 7.45371 5.25572V2.17968H6.62924Z" stroke="#4E5969" stroke-width="0.4"/>
    <path d="M13.0772 7.88038L13.0771 7.88038C13.0776 7.88843 13.0778 7.89635 13.0778 7.90381V12.2724C13.0778 12.8239 12.6306 13.2711 12.0791 13.2711H2.15275C1.51893 13.2711 1.00518 12.7573 1.00518 12.1235V7.90395C1.00518 7.89649 1.00532 7.88857 1.00582 7.88052L1.00589 7.8793L1.00591 7.8793L1.0063 7.87467L1.00632 7.87452L13.0772 7.88038ZM13.0772 7.88038L13.077 7.87904M13.0772 7.88038L13.077 7.87904M13.077 7.87904L13.0767 7.87514M13.077 7.87904L13.0767 7.87514M13.0709 7.8293L13.0708 7.82931L13.071 7.83019L13.0709 7.8293ZM13.0709 7.8293L13.0707 7.82829M13.0709 7.8293L13.0707 7.82829M13.0707 7.82829C13.0707 7.82846 13.0707 7.82867 13.0708 7.82889L13.0707 7.82842C13.0706 7.82776 13.0706 7.8278 13.0707 7.82816M13.0707 7.82829L13.0707 7.82816M13.0707 7.82829C13.0707 7.82824 13.0707 7.8282 13.0707 7.82816M13.0707 7.82829L13.0705 7.82706M13.0707 7.82816L13.0705 7.82706M13.0705 7.82706C13.0663 7.80496 13.0604 7.78344 13.0528 7.76263V7.76224L13.0497 7.75451L13.0493 7.75341C13.0453 7.74326 13.041 7.73346 13.0364 7.72389C13.0364 7.72388 13.0364 7.72387 13.0364 7.72385L11.6863 4.84806C11.6532 4.77696 11.6004 4.71681 11.5342 4.67467C11.468 4.63253 11.3912 4.61015 11.3128 4.61016H9.53611C9.42715 4.61016 9.33887 4.69844 9.33887 4.8074V5.23752C9.33887 5.34648 9.42715 5.43477 9.53611 5.43477H11.0503L12.0175 7.49178M13.0705 7.82706L12.0175 7.49178M12.0175 7.49178H9.97771H9.9777C9.90122 7.49181 9.82626 7.51309 9.76118 7.55326C9.6961 7.59342 9.64346 7.65088 9.60914 7.71922L9.60914 7.71924L8.77545 9.38123H5.29205L4.45837 7.71925L4.45836 7.71924L4.41367 7.74166C4.38354 7.68158 4.33729 7.63106 4.28009 7.59576C4.22289 7.56046 4.157 7.54177 4.08979 7.54178M12.0175 7.49178H4.08979V7.54178M4.08979 7.54178L4.08978 7.49178H2.0647M4.08979 7.54178H2.04159L2.0647 7.49178M2.0647 7.49178H2.00962M2.0647 7.49178L2.99629 5.4766M2.00962 7.49178L1.01309 7.82428C1.01294 7.82491 1.01279 7.82554 1.01266 7.82615C1.01729 7.80219 1.02394 7.77879 1.03265 7.75624C1.03289 7.75551 1.03312 7.75487 1.03333 7.75432L1.03366 7.75352M2.00962 7.49178L2.96432 5.4266M2.00962 7.49178L2.40541 4.91104C2.46488 4.78348 2.59299 4.70199 2.73367 4.70199H4.49898C4.58033 4.70199 4.64623 4.76789 4.64623 4.84924V5.27936C4.64623 5.3607 4.58033 5.4266 4.49898 5.4266H2.96432M2.99629 5.4766H4.49898C4.60795 5.4766 4.69623 5.38832 4.69623 5.27936V4.84924C4.69623 4.74028 4.60795 4.65199 4.49898 4.65199H2.73367C2.57358 4.65199 2.42779 4.74471 2.36009 4.88991L2.36005 4.89001L1.04648 7.72396M2.99629 5.4766H2.96432V5.4266M2.99629 5.4766L3.0097 5.44758L2.96432 5.4266M1.04648 7.72396C1.04189 7.73347 1.03757 7.74337 1.03366 7.75352M1.04648 7.72396C1.04655 7.72383 1.04661 7.7237 1.04667 7.72357L1.09168 7.74535L1.04632 7.72433L1.04648 7.72396ZM1.03366 7.75352L1.03496 7.75045L1.03542 7.74949L1.03561 7.74911L1.08033 7.77146L1.03366 7.75352ZM13.0767 7.87514L13.0767 7.87469L13.0767 7.87514ZM1.01164 7.83192C1.01044 7.83846 1.00955 7.84475 1.0088 7.85014L1.01194 7.83033C1.01184 7.83086 1.01174 7.83139 1.01164 7.83192ZM1.00882 7.85014L1.00833 7.85362C1.00832 7.85372 1.00831 7.85381 1.0083 7.85389C1.00826 7.85426 1.00824 7.85438 1.00825 7.85434L1.00882 7.85014ZM9.39828 9.97812L9.39829 9.9781L10.232 8.31611H12.2532V12.1078C12.2532 12.2948 12.1015 12.4465 11.9145 12.4465H2.23287C2.01029 12.4465 1.82979 12.266 1.82979 12.0434V8.31611H3.83526L4.66894 9.9781C4.66894 9.9781 4.66894 9.9781 4.66894 9.9781C4.70323 10.0465 4.75586 10.104 4.82095 10.1441C4.88605 10.1843 4.96103 10.2056 5.03753 10.2056H9.02971C9.18577 10.2056 9.32828 10.1175 9.39828 9.97812Z" stroke="#4E5969" stroke-width="0.4"/>
  </g>
  <defs>
    <clipPath id="clip0_1591_3481">
      <rect width="14" height="14" fill="white"/>
    </clipPath>
  </defs>
</svg>
