<svg width="14" height="14" viewBox="0 0 14 14" fill="none" xmlns="http://www.w3.org/2000/svg">
<g id="edit/brush">
<path id="Vector" fill-rule="evenodd" clip-rule="evenodd" d="M2.62504 2.62565V4.95898H9.04171V2.62565H2.62504ZM1.45837 2.33398C1.45837 1.85327 1.84663 1.45898 2.33241 1.45898H9.33621C9.82647 1.45898 10.2084 1.85763 10.2084 2.33383V3.20898H11.6668C12.1502 3.20898 12.5417 3.60092 12.5417 4.08398V7.62501C12.5417 8.05743 12.2258 8.425 11.7983 8.49005L5.83337 9.39777V12.5423H4.66671V9.14713C4.66671 8.71471 4.98258 8.34714 5.41007 8.28208L11.375 7.37437V4.37565H10.2084V5.25125C10.2084 5.73605 9.81507 6.12565 9.33337 6.12565H2.33337C1.85013 6.12565 1.45837 5.7339 1.45837 5.25065V2.33398Z" fill="#4E5969"/>
</g>
</svg>
