<svg xmlns="http://www.w3.org/2000/svg" width="14" height="14" viewBox="0 0 14 14" fill="none">
  <g clip-path="url(#clip0_1591_3478)">
    <path d="M7.45389 4.10157L8.61172 2.94375C8.77274 2.78272 9.0338 2.78272 9.19484 2.94373C9.19484 2.94373 9.19485 2.94374 9.19485 2.94375L9.1595 2.9791L7.45389 4.10157ZM7.45389 4.10157L7.45389 1.02553C7.45389 0.918069 7.3667 0.830879 7.25924 0.830879L6.82407 0.830879C6.71661 0.830879 6.62942 0.918069 6.62942 1.02553L6.62942 4.10157L7.45389 4.10157Z" stroke="#4E5969" stroke-width="0.4"/>
    <path d="M13.0772 7.88038L13.0771 7.88038C13.0776 7.88843 13.0778 7.89635 13.0778 7.90381V12.2724C13.0778 12.8239 12.6306 13.2711 12.0791 13.2711H2.15275C1.51893 13.2711 1.00518 12.7573 1.00518 12.1235V7.90395C1.00518 7.89649 1.00532 7.88857 1.00582 7.88052L1.00589 7.8793L1.00591 7.8793L1.0063 7.87467L1.00632 7.87452L13.0772 7.88038ZM13.0772 7.88038L13.077 7.87904M13.0772 7.88038L13.077 7.87904M13.077 7.87904L13.0767 7.87514M13.077 7.87904L13.0767 7.87514M13.0708 7.82935L13.0709 7.82934M13.0708 7.82935C13.0707 7.82827 13.0705 7.82726 13.0707 7.82841L13.0709 7.82934M13.0708 7.82935L13.071 7.83019C13.0723 7.83708 13.0733 7.84392 13.0741 7.84946L13.0708 7.82935ZM13.0709 7.82934L13.0705 7.82706M13.0709 7.82934L13.0705 7.82706M13.0705 7.82706C13.0663 7.80509 13.0604 7.7837 13.0529 7.763V7.76266L13.0494 7.75385L13.0494 7.75382C13.0455 7.74379 13.041 7.73358 13.0364 7.72389C13.0364 7.72388 13.0364 7.72387 13.0364 7.72385L11.6863 4.84806C11.6532 4.77696 11.6004 4.71681 11.5342 4.67467C11.468 4.63253 11.3912 4.61015 11.3128 4.61016H9.53611C9.42715 4.61016 9.33887 4.69844 9.33887 4.8074V5.23752C9.33887 5.34648 9.42715 5.43477 9.53611 5.43477H11.0503L12.0175 7.49178M13.0705 7.82706L12.0175 7.49178M12.0175 7.49178H9.97771H9.9777C9.90122 7.49181 9.82626 7.51309 9.76118 7.55326C9.6961 7.59342 9.64346 7.65088 9.60914 7.71922L9.60914 7.71924L8.77545 9.38123H5.29205L4.45837 7.71925L4.45836 7.71924L4.41367 7.74166C4.38354 7.68158 4.33729 7.63106 4.28009 7.59576C4.22289 7.56046 4.157 7.54177 4.08979 7.54178M12.0175 7.49178H4.08979V7.54178M4.08979 7.54178L4.08978 7.49178H2.0647M4.08979 7.54178H2.04159L2.0647 7.49178M2.0647 7.49178H2.00962M2.0647 7.49178L2.99629 5.4766M2.00962 7.49178L1.01265 7.82618C1.01731 7.80213 1.02422 7.77796 1.03293 7.7554C1.03322 7.75455 1.03355 7.75365 1.03393 7.7527C1.0341 7.75229 1.0343 7.75179 1.03456 7.75121M2.00962 7.49178L2.96432 5.4266M2.00962 7.49178L1.08033 7.77147M2.99629 5.4766H4.49898C4.60795 5.4766 4.69623 5.38832 4.69623 5.27936V4.84924C4.69623 4.74028 4.60795 4.65199 4.49898 4.65199H2.73367C2.57358 4.65199 2.42779 4.74471 2.36009 4.88991L2.36005 4.89001L1.04648 7.72396M2.99629 5.4766H2.96432V5.4266M2.99629 5.4766L3.0097 5.44758L2.96432 5.4266M1.04648 7.72396C1.04224 7.73275 1.03822 7.74187 1.03456 7.75121M1.04648 7.72396L1.04632 7.72433L1.05492 7.72831C1.05249 7.72975 1.05054 7.73117 1.04908 7.73235C1.04489 7.73569 1.04212 7.73902 1.04057 7.74105C1.03891 7.74322 1.03772 7.74515 1.03695 7.7465C1.0359 7.74832 1.03512 7.74995 1.03456 7.75121M1.04648 7.72396C1.04655 7.72383 1.04661 7.7237 1.04667 7.72357L1.05563 7.72791C1.05976 7.72556 1.06517 7.72326 1.0718 7.72212C1.07755 7.72112 1.08384 7.72107 1.09031 7.7224C1.09407 7.72316 1.09756 7.72432 1.10076 7.72576L2.40541 4.91104C2.46488 4.78348 2.59299 4.70199 2.73367 4.70199H4.49898C4.58033 4.70199 4.64623 4.76789 4.64623 4.84924V5.27936C4.64623 5.3607 4.58033 5.4266 4.49898 5.4266H2.96432M1.03456 7.75121C1.03426 7.75198 1.03396 7.75275 1.03366 7.75352L1.08033 7.77147M1.08033 7.77147L1.03561 7.74911L1.03719 7.74619C1.03781 7.74514 1.03914 7.74295 1.04116 7.74041C1.04219 7.73911 1.04387 7.73714 1.04619 7.73497C1.04787 7.73341 1.05083 7.73084 1.05505 7.72838L1.09168 7.74535M1.08033 7.77147C1.08375 7.76258 1.08758 7.75383 1.09168 7.74535M1.09168 7.74535L1.05576 7.72797C1.05663 7.72748 1.05755 7.727 1.05851 7.72653C1.06467 7.72356 1.07578 7.71981 1.08957 7.72241C1.09348 7.72315 1.0972 7.72434 1.10069 7.7259L1.09168 7.74535ZM13.0767 7.87514C13.0767 7.87502 13.0767 7.87489 13.0767 7.87476L13.0767 7.87514ZM1.01164 7.83192C1.01044 7.83846 1.00955 7.84475 1.0088 7.85014L1.01194 7.83033C1.01184 7.83086 1.01174 7.83139 1.01164 7.83192ZM9.39828 9.97812L9.39829 9.9781L10.232 8.31611H12.2532V12.1078C12.2532 12.2948 12.1015 12.4465 11.9145 12.4465H2.23287C2.01029 12.4465 1.82979 12.266 1.82979 12.0434V8.31611H3.83526L4.66894 9.9781C4.66894 9.9781 4.66894 9.9781 4.66894 9.9781C4.70323 10.0465 4.75586 10.104 4.82095 10.1441C4.88605 10.1843 4.96103 10.2056 5.03753 10.2056H9.02971C9.18577 10.2056 9.32828 10.1175 9.39828 9.97812Z" stroke="#4E5969" stroke-width="0.4"/>
  </g>
  <defs>
    <clipPath id="clip0_1591_3478">
      <rect width="14" height="14" fill="white"/>
    </clipPath>
  </defs>
</svg>
