<svg width="18" height="18" viewBox="0 0 18 18" fill="none" xmlns="http://www.w3.org/2000/svg">
<g id="Frame">
<path id="Vector" d="M16.725 2.9985L16.725 2.9979C16.7245 2.5407 16.5426 2.10239 16.2191 1.77932C15.8956 1.45629 15.4571 1.2749 15 1.275C14.9999 1.275 14.9999 1.275 14.9998 1.275L3 1.275C2.04665 1.275 1.275 2.04561 1.275 2.9985V12.516C1.275 13.004 1.48019 13.4197 1.82209 13.7027C2.15266 13.9763 2.57721 14.1 3 14.1H6.27618L8.03225 15.9746L8.03837 15.9811L8.04468 15.9875C8.17016 16.1136 8.31933 16.2138 8.48362 16.2822C8.64791 16.3506 8.82409 16.3858 9.00205 16.386C9.18 16.3861 9.35623 16.3511 9.52062 16.2829C9.68501 16.2148 9.83432 16.1148 9.95998 15.9888L9.96717 15.9816L9.97411 15.9741L11.7203 14.1H15C15.4228 14.1 15.8477 13.9769 16.1785 13.7031C16.5208 13.4198 16.725 13.0037 16.725 12.516V2.9985Z" stroke="#86909C" stroke-width="1.2"/>
<circle id="Ellipse 14" cx="5" cy="8" r="1" fill="#141CEB"/>
<circle id="Ellipse 15" cx="9" cy="8" r="1" fill="#141CEB"/>
<circle id="Ellipse 16" cx="13" cy="8" r="1" fill="#141CEB"/>
</g>
</svg>
