<svg width="128" height="105" viewBox="0 0 128 105" fill="none" xmlns="http://www.w3.org/2000/svg">
<g id="Group 101">
<path id="Rectangle 57" d="M132.522 36C132.522 27.1634 125.359 20 116.522 20H56C47.1634 20 40 27.1634 40 36V82.207C40 91.0436 47.1634 98.207 56 98.207H95.7243C96.248 98.207 96.7507 98.4124 97.1246 98.779L117.137 118.402C118.582 119.818 120.975 118.44 120.476 116.48L116.389 100.45C116.099 99.3129 116.958 98.207 118.132 98.207C126.079 98.207 132.522 91.7642 132.522 83.8166V36Z" fill="url(#paint0_radial_666_6770)"/>
<g id="Rectangle 56" filter="url(#filter0_b_666_6770)">
<path d="M0.822998 16C0.822998 7.16343 7.98644 0 16.823 0H89.3186C98.1551 0 105.319 7.16344 105.319 16V71.2626C105.319 80.0992 98.1551 87.2626 89.3186 87.2626H42.27C41.7506 87.2626 41.2516 87.4647 40.8785 87.8261L17.5374 110.437C16.0867 111.842 13.7046 110.456 14.2093 108.5L19.0451 89.7624C19.3718 88.4964 18.416 87.2626 17.1086 87.2626H16.823C7.98645 87.2626 0.822998 80.0991 0.822998 71.2626V16Z" fill="#FF9A2E" fill-opacity="0.3"/>
<path d="M1.323 16C1.323 7.43957 8.26258 0.5 16.823 0.5H89.3186C97.879 0.5 104.819 7.43959 104.819 16V71.2626C104.819 79.823 97.879 86.7626 89.3186 86.7626H42.27C41.6208 86.7626 40.9969 87.0152 40.5306 87.4669L17.1895 110.077C16.1015 111.131 14.3149 110.092 14.6934 108.625L19.5293 89.8873C19.9376 88.3049 18.7428 86.7626 17.1086 86.7626H16.823C8.26259 86.7626 1.323 79.823 1.323 71.2626V16Z" stroke="url(#paint1_linear_666_6770)"/>
</g>
<g id="Rectangle 26" filter="url(#filter1_d_666_6770)">
<rect x="25" y="38" width="12" height="12" rx="6" fill="url(#paint2_linear_666_6770)" shape-rendering="crispEdges"/>
</g>
<g id="Rectangle 27" filter="url(#filter2_d_666_6770)">
<rect x="47" y="38" width="12" height="12" rx="6" fill="url(#paint3_linear_666_6770)" shape-rendering="crispEdges"/>
</g>
<g id="Rectangle 58" filter="url(#filter3_d_666_6770)">
<rect x="73" y="38" width="12" height="12" rx="6" fill="url(#paint4_linear_666_6770)" shape-rendering="crispEdges"/>
</g>
</g>
<defs>
<filter id="filter0_b_666_6770" x="-9.177" y="-10" width="124.496" height="131.009" filterUnits="userSpaceOnUse" color-interpolation-filters="sRGB">
<feFlood flood-opacity="0" result="BackgroundImageFix"/>
<feGaussianBlur in="BackgroundImageFix" stdDeviation="5"/>
<feComposite in2="SourceAlpha" operator="in" result="effect1_backgroundBlur_666_6770"/>
<feBlend mode="normal" in="SourceGraphic" in2="effect1_backgroundBlur_666_6770" result="shape"/>
</filter>
<filter id="filter1_d_666_6770" x="5" y="22" width="52" height="52" filterUnits="userSpaceOnUse" color-interpolation-filters="sRGB">
<feFlood flood-opacity="0" result="BackgroundImageFix"/>
<feColorMatrix in="SourceAlpha" type="matrix" values="0 0 0 0 0 0 0 0 0 0 0 0 0 0 0 0 0 0 127 0" result="hardAlpha"/>
<feOffset dy="4"/>
<feGaussianBlur stdDeviation="10"/>
<feComposite in2="hardAlpha" operator="out"/>
<feColorMatrix type="matrix" values="0 0 0 0 0.919193 0 0 0 0 0.536523 0 0 0 0 0.125243 0 0 0 0.4 0"/>
<feBlend mode="normal" in2="BackgroundImageFix" result="effect1_dropShadow_666_6770"/>
<feBlend mode="normal" in="SourceGraphic" in2="effect1_dropShadow_666_6770" result="shape"/>
</filter>
<filter id="filter2_d_666_6770" x="27" y="22" width="52" height="52" filterUnits="userSpaceOnUse" color-interpolation-filters="sRGB">
<feFlood flood-opacity="0" result="BackgroundImageFix"/>
<feColorMatrix in="SourceAlpha" type="matrix" values="0 0 0 0 0 0 0 0 0 0 0 0 0 0 0 0 0 0 127 0" result="hardAlpha"/>
<feOffset dy="4"/>
<feGaussianBlur stdDeviation="10"/>
<feComposite in2="hardAlpha" operator="out"/>
<feColorMatrix type="matrix" values="0 0 0 0 0.919193 0 0 0 0 0.536523 0 0 0 0 0.125243 0 0 0 0.4 0"/>
<feBlend mode="normal" in2="BackgroundImageFix" result="effect1_dropShadow_666_6770"/>
<feBlend mode="normal" in="SourceGraphic" in2="effect1_dropShadow_666_6770" result="shape"/>
</filter>
<filter id="filter3_d_666_6770" x="53" y="22" width="52" height="52" filterUnits="userSpaceOnUse" color-interpolation-filters="sRGB">
<feFlood flood-opacity="0" result="BackgroundImageFix"/>
<feColorMatrix in="SourceAlpha" type="matrix" values="0 0 0 0 0 0 0 0 0 0 0 0 0 0 0 0 0 0 127 0" result="hardAlpha"/>
<feOffset dy="4"/>
<feGaussianBlur stdDeviation="10"/>
<feComposite in2="hardAlpha" operator="out"/>
<feColorMatrix type="matrix" values="0 0 0 0 0.919193 0 0 0 0 0.536523 0 0 0 0 0.125243 0 0 0 0.4 0"/>
<feBlend mode="normal" in2="BackgroundImageFix" result="effect1_dropShadow_666_6770"/>
<feBlend mode="normal" in="SourceGraphic" in2="effect1_dropShadow_666_6770" result="shape"/>
</filter>
<radialGradient id="paint0_radial_666_6770" cx="0" cy="0" r="1" gradientUnits="userSpaceOnUse" gradientTransform="translate(86.261 71.7035) rotate(90) scale(51.7035 46.2611)">
<stop stop-color="#FF8400"/>
<stop offset="1" stop-color="#FFC485"/>
</radialGradient>
<linearGradient id="paint1_linear_666_6770" x1="19.6753" y1="17.2476" x2="99.0947" y2="84.9123" gradientUnits="userSpaceOnUse">
<stop stop-color="#FFF0E0"/>
<stop offset="1" stop-color="#FFCA91" stop-opacity="0.56"/>
</linearGradient>
<linearGradient id="paint2_linear_666_6770" x1="37" y1="44" x2="25" y2="44" gradientUnits="userSpaceOnUse">
<stop stop-color="white" stop-opacity="0.91"/>
<stop offset="1" stop-color="#FFE1C1"/>
</linearGradient>
<linearGradient id="paint3_linear_666_6770" x1="59" y1="44" x2="47" y2="44" gradientUnits="userSpaceOnUse">
<stop stop-color="white" stop-opacity="0.91"/>
<stop offset="1" stop-color="#FFE1C1"/>
</linearGradient>
<linearGradient id="paint4_linear_666_6770" x1="85" y1="44" x2="73" y2="44" gradientUnits="userSpaceOnUse">
<stop stop-color="white" stop-opacity="0.91"/>
<stop offset="1" stop-color="#FFE1C1"/>
</linearGradient>
</defs>
</svg>
