<svg width="78" height="73" viewBox="0 0 78 73" fill="none" xmlns="http://www.w3.org/2000/svg">
<g id="Frame 1906" clip-path="url(#clip0_1848_9091)">
<path id="Vector" d="M15 23.1176C15 21.6816 16.4704 20.5176 18.2842 20.5176H36.3924C37.4178 20.5176 38.404 20.9114 39.1474 21.6176L45.0421 27.2176C45.7855 27.9238 46.7717 28.3176 47.7971 28.3176L74.1158 28.3176C75.9297 28.3176 77.4 29.4816 77.4 30.9176L72.4 69.7176C72.4 71.1536 70.9297 72.3176 69.1158 72.3176H13.2842C11.4704 72.3176 10 71.1536 10 69.7176L15 23.1176Z" fill="url(#paint0_radial_1848_9091)"/>
<g id="Group 1905">
<rect id="Rectangle 31" x="21.4419" width="44" height="50" rx="4" transform="rotate(0.282653 21.4419 0)" fill="#C0C8FF"/>
<rect id="Rectangle 5177" x="32.4419" y="10" width="22" height="6" rx="3" fill="white"/>
<rect id="Rectangle 5178" x="32.4419" y="21" width="22" height="6" rx="3" fill="white"/>
<rect id="Rectangle 5179" x="32.4419" y="32" width="22" height="6" rx="3" fill="white"/>
</g>
<g id="Vector_2" filter="url(#filter0_b_1848_9091)">
<path d="M0.110791 28.5785C0.0371879 28.2723 -0.0172401 27.9543 0.0535412 27.6475C0.333007 26.4359 1.67314 25.5176 3.28421 25.5176H21.3924C22.4178 25.5176 23.404 25.9114 24.1474 26.6176L30.0421 32.2176C30.7855 32.9238 31.7717 33.3176 32.7971 33.3176H59.1158C60.6814 33.3176 61.9911 34.1848 62.3203 35.3455C62.4251 35.7152 62.4554 36.1047 62.5644 36.4731L72.2356 69.1621C72.3447 69.5305 72.4251 69.92 72.3203 70.2896C71.9911 71.4504 70.6814 72.3176 69.1158 72.3176H13.2842C11.6731 72.3176 10.333 71.3992 10.0535 70.1877C9.98276 69.8808 9.96281 69.5629 9.88921 69.2567L0.110791 28.5785Z" fill="#9296FF" fill-opacity="0.4"/>
<path d="M0.596942 28.4616C0.525487 28.1644 0.498042 27.945 0.540747 27.7599C0.752681 26.8411 1.83084 26.0176 3.28421 26.0176H21.3924C22.2896 26.0176 23.1525 26.3621 23.803 26.9801L29.6977 32.5801C30.534 33.3746 31.6436 33.8176 32.7971 33.8176H59.1158C60.5253 33.8176 61.5877 34.595 61.8392 35.482C61.8835 35.638 61.9131 35.8016 61.9481 35.9951L61.9487 35.9987C61.9824 36.1852 62.0215 36.4007 62.0849 36.6149L71.7562 69.3039C71.8621 69.6619 71.9023 69.9309 71.8392 70.1532C71.5877 71.0402 70.5253 71.8176 69.1158 71.8176H13.2842C11.8308 71.8176 10.7527 70.9941 10.5407 70.0753C10.5109 69.9458 10.491 69.8111 10.4675 69.6517L10.4671 69.6489C10.4444 69.4954 10.4182 69.3179 10.3754 69.1398L0.596942 28.4616Z" stroke="url(#paint1_linear_1848_9091)"/>
</g>
</g>
<defs>
<filter id="filter0_b_1848_9091" x="-15.9795" y="9.51758" width="104.349" height="78.7998" filterUnits="userSpaceOnUse" color-interpolation-filters="sRGB">
<feFlood flood-opacity="0" result="BackgroundImageFix"/>
<feGaussianBlur in="BackgroundImageFix" stdDeviation="8"/>
<feComposite in2="SourceAlpha" operator="in" result="effect1_backgroundBlur_1848_9091"/>
<feBlend mode="normal" in="SourceGraphic" in2="effect1_backgroundBlur_1848_9091" result="shape"/>
</filter>
<radialGradient id="paint0_radial_1848_9091" cx="0" cy="0" r="1" gradientUnits="userSpaceOnUse" gradientTransform="translate(42.4421 35) rotate(91.9064) scale(37.3382 49.7843)">
<stop stop-color="#5358D0"/>
<stop offset="1" stop-color="#B3B5FF"/>
</radialGradient>
<linearGradient id="paint1_linear_1848_9091" x1="17.3252" y1="28.9588" x2="51.7775" y2="73.1988" gradientUnits="userSpaceOnUse">
<stop stop-color="#AAADFF"/>
<stop offset="1" stop-color="white" stop-opacity="0.51"/>
</linearGradient>
<clipPath id="clip0_1848_9091">
<rect width="77.4" height="72.3176" fill="white"/>
</clipPath>
</defs>
</svg>
