<svg width="18" height="19" viewBox="0 0 18 19" fill="none" xmlns="http://www.w3.org/2000/svg">
<g id="Frame">
<path id="Vector" fill-rule="evenodd" clip-rule="evenodd" d="M9 17C13.1421 17 16.5 13.6421 16.5 9.5C16.5 5.35786 13.1421 2 9 2C4.85786 2 1.5 5.35786 1.5 9.5C1.5 13.6421 4.85786 17 9 17Z" stroke="#4E5969" stroke-width="1.2" stroke-linecap="round" stroke-linejoin="round"/>
<path id="Vector_2" d="M1.5 9.5H16.5" stroke="#4E5969" stroke-width="1.2" stroke-linecap="round" stroke-linejoin="round"/>
<path id="Vector_3" fill-rule="evenodd" clip-rule="evenodd" d="M9 17C10.6569 17 12 13.6421 12 9.5C12 5.35786 10.6569 2 9 2C7.34314 2 6 5.35786 6 9.5C6 13.6421 7.34314 17 9 17Z" stroke="#4E5969" stroke-width="1.2" stroke-linecap="round" stroke-linejoin="round"/>
<path id="Vector_4" d="M3.69672 4.30322C5.05395 5.66046 6.92895 6.49994 9 6.49994C11.0711 6.49994 12.9461 5.66046 14.3033 4.30322" stroke="#4E5969" stroke-width="1.2" stroke-linecap="round" stroke-linejoin="round"/>
<path id="Vector_5" d="M14.3033 14.6967C12.9461 13.3395 11.0711 12.5 9 12.5C6.92895 12.5 5.05395 13.3395 3.69672 14.6967" stroke="#4E5969" stroke-width="1.2" stroke-linecap="round" stroke-linejoin="round"/>
</g>
</svg>
