<svg width="18" height="18" viewBox="0 0 18 18" fill="none" xmlns="http://www.w3.org/2000/svg">
<g id="Frame">
<path id="Vector" d="M16.2727 9.7H15.7273V8.125C15.7273 7.46 15.1455 6.9 14.4545 6.9H9.54545V5.5H12.6364C13.0364 5.5 13.3636 5.185 13.3636 4.8V2.7C13.3636 2.315 13.0364 2 12.6364 2H5.36364C4.96364 2 4.63636 2.315 4.63636 2.7V4.8C4.63636 5.185 4.96364 5.5 5.36364 5.5H8.45455V6.9H3.54545C2.85455 6.9 2.27273 7.46 2.27273 8.125V9.7H1.72727C1.32727 9.7 1 10.015 1 10.4V15.3C1 15.685 1.32727 16 1.72727 16H3.90909C4.30909 16 4.63636 15.685 4.63636 15.3V10.4C4.63636 10.015 4.30909 9.7 3.90909 9.7H3.36364V8.125C3.36364 8.02 3.43636 7.95 3.54545 7.95H8.45455V9.7H7.90909C7.50909 9.7 7.18182 10.015 7.18182 10.4V15.3C7.18182 15.685 7.50909 16 7.90909 16H10.0909C10.4909 16 10.8182 15.685 10.8182 15.3V10.4C10.8182 10.015 10.4909 9.7 10.0909 9.7H9.54545V7.95H14.4545C14.5636 7.95 14.6364 8.02 14.6364 8.125V9.7H14.0909C13.6909 9.7 13.3636 10.015 13.3636 10.4V15.3C13.3636 15.685 13.6909 16 14.0909 16H16.2727C16.6727 16 17 15.685 17 15.3V10.4C17 10.015 16.6727 9.7 16.2727 9.7ZM3.54545 10.75V14.95H2.09091V10.75H3.54545ZM9.72727 10.75V14.95H8.27273V10.75H9.72727ZM5.72727 4.45V3.05H12.2727V4.45H5.72727ZM15.9091 14.95H14.4545V10.75H15.9091V14.95Z" fill="#4E5969"/>
</g>
</svg>
