<svg width="24" height="24" viewBox="0 0 24 24" fill="none" xmlns="http://www.w3.org/2000/svg">
<g id="Frame">
<path id="Vector" d="M4.06458 1.28613C3.78428 1.29331 3.51746 1.40794 3.31931 1.60633C3.12116 1.80472 3.00685 2.07168 3.00001 2.35199V21.5498C2.9994 21.6894 3.02746 21.8276 3.08246 21.9559C3.13745 22.0842 3.21821 22.1998 3.31972 22.2956C3.41627 22.3959 3.53189 22.476 3.6598 22.531C3.78771 22.5861 3.92533 22.615 4.06458 22.6161H19.6826C19.822 22.6166 19.96 22.5884 20.088 22.5333C20.2161 22.4782 20.3314 22.3975 20.427 22.296C20.5269 22.199 20.6066 22.0831 20.6615 21.9551C20.7163 21.8271 20.7453 21.6895 20.7467 21.5503V7.32728L14.7129 1.28613H4.06458Z" fill="#86909C"/>
<path id="Vector_2" d="M20.7471 7.32813H15.7774C15.497 7.32118 15.2299 7.20663 15.0316 7.00822C14.8333 6.80981 14.7189 6.54273 14.712 6.26228V1.28613L20.7463 7.32813H20.7471Z" fill="white" fill-opacity="0.7"/>
<path id="Vector_3" d="M12.7206 19H10.8003V15.5L9.3599 17.4643L7.92016 15.5V19H6V12H7.92016L9.3599 14.4784L10.8003 12H12.7206V19ZM15.5868 19L13.201 15.5H14.64V12H16.5601V15.5H18L15.5862 19H15.5868Z" fill="white"/>
</g>
</svg>
