<svg width="18" height="18" viewBox="0 0 18 18" fill="none" xmlns="http://www.w3.org/2000/svg">
<g id="&#231;&#179;&#187;&#231;&#187;&#159;&#231;&#174;&#161;&#231;&#144;&#134;/&#232;&#167;&#146;&#232;&#137;&#178;&#231;&#174;&#161;&#231;&#144;&#134;">
<path id="Vector" d="M15.75 3H2.25C1.83579 3 1.5 3.33579 1.5 3.75V14.25C1.5 14.6642 1.83579 15 2.25 15H15.75C16.1642 15 16.5 14.6642 16.5 14.25V3.75C16.5 3.33579 16.1642 3 15.75 3Z" stroke="#141CEB" stroke-width="1.2" stroke-linejoin="round"/>
<path id="Vector_2" d="M6.375 9.375C7.20341 9.375 7.875 8.70341 7.875 7.875C7.875 7.04659 7.20341 6.375 6.375 6.375C5.54659 6.375 4.875 7.04659 4.875 7.875C4.875 8.70341 5.54659 9.375 6.375 9.375Z" stroke="#141CEB" stroke-width="1.2" stroke-linejoin="round"/>
<path id="Vector_3" d="M8.625 11.625C8.625 10.3824 7.61764 9.375 6.375 9.375C5.13236 9.375 4.125 10.3824 4.125 11.625" stroke="#141CEB" stroke-width="1.2" stroke-linecap="round" stroke-linejoin="round"/>
<path id="Vector_4" d="M10.5 7.5H13.5" stroke="#141CEB" stroke-width="1.2" stroke-linecap="round" stroke-linejoin="round"/>
<path id="Vector_5" d="M11.25 10.5H13.5" stroke="#141CEB" stroke-width="1.2" stroke-linecap="round" stroke-linejoin="round"/>
</g>
</svg>
