<svg width="32" height="32" viewBox="0 0 32 32" fill="none" xmlns="http://www.w3.org/2000/svg">
<g id="Frame">
<g clip-path="url(#clip0_394_6438)">
<circle id="Ellipse 12" cx="16" cy="16" r="16" fill="#141CEB"/>
<g id="Vector" filter="url(#filter0_d_394_6438)">
<path d="M22.4654 9.13242C22.4654 9.13242 24.1306 8.48314 23.9918 10.06C23.9455 10.7093 23.5293 12.9818 23.2055 15.4398L22.0954 22.7211C22.0954 22.7211 22.0029 23.7878 21.1703 23.9733C20.3377 24.1588 19.0889 23.324 18.8576 23.1385C18.6726 22.9994 15.3886 20.9123 14.2323 19.892C13.9085 19.6138 13.5384 19.0572 14.2785 18.408L19.1352 13.7702C19.6902 13.2137 20.2453 11.9151 17.9326 13.4919L11.457 17.8978C11.457 17.8978 10.717 18.3616 9.3294 17.9442L6.32289 17.0166C6.32289 17.0166 5.2128 16.321 7.10921 15.6253C11.7346 13.4455 17.4238 11.2194 22.4654 9.13242Z" fill="white"/>
</g>
</g>
</g>
<defs>
<filter id="filter0_d_394_6438" x="2" y="7" width="26" height="23" filterUnits="userSpaceOnUse" color-interpolation-filters="sRGB">
<feFlood flood-opacity="0" result="BackgroundImageFix"/>
<feColorMatrix in="SourceAlpha" type="matrix" values="0 0 0 0 0 0 0 0 0 0 0 0 0 0 0 0 0 0 127 0" result="hardAlpha"/>
<feOffset dy="2"/>
<feGaussianBlur stdDeviation="2"/>
<feComposite in2="hardAlpha" operator="out"/>
<feColorMatrix type="matrix" values="0 0 0 0 0.454902 0 0 0 0 0.47451 0 0 0 0 0.937255 0 0 0 0.39 0"/>
<feBlend mode="normal" in2="BackgroundImageFix" result="effect1_dropShadow_394_6438"/>
<feBlend mode="normal" in="SourceGraphic" in2="effect1_dropShadow_394_6438" result="shape"/>
</filter>
<clipPath id="clip0_394_6438">
<rect width="32" height="32" rx="4" fill="white"/>
</clipPath>
</defs>
</svg>
