<svg width="24" height="25" viewBox="0 0 24 25" fill="none" xmlns="http://www.w3.org/2000/svg">
<g clip-path="url(#clip0_1329_13787)">
<path d="M4.5 0.5H15.0036L22.5 8V21.5C22.5 23.1569 21.1569 24.5 19.5 24.5H4.5C2.8431 24.5 1.5 23.1569 1.5 21.5V3.5C1.5 1.8431 2.8431 0.5 4.5 0.5Z" fill="#F76560"/>
<path d="M15 0.5L22.5 8H18C16.3431 8 15 6.6569 15 5V0.5Z" fill="#FDD1CF"/>
<path d="M18.5523 13.03C18.5523 13.115 18.5098 13.1575 18.4248 13.1575H16.0173C15.9873 13.1575 15.9723 13.1725 15.9723 13.2025V14.35C15.9723 14.38 15.9873 14.395 16.0173 14.395H17.5848C17.6698 14.395 17.7123 14.4375 17.7123 14.5225V15.175C17.7123 15.26 17.6698 15.3025 17.5848 15.3025H16.0173C15.9873 15.3025 15.9723 15.3175 15.9723 15.3475V17.3725C15.9723 17.4575 15.9298 17.5 15.8448 17.5H15.0423C14.9573 17.5 14.9148 17.4575 14.9148 17.3725V12.3775C14.9148 12.2925 14.9573 12.25 15.0423 12.25H18.4248C18.5098 12.25 18.5523 12.2925 18.5523 12.3775V13.03Z" fill="white"/>
<path d="M10.4061 17.5C10.3211 17.5 10.2786 17.4575 10.2786 17.3725V12.3775C10.2786 12.2925 10.3211 12.25 10.4061 12.25H12.2436C12.6186 12.25 12.9461 12.3175 13.2261 12.4525C13.5111 12.5825 13.7311 12.7675 13.8861 13.0075C14.0411 13.2475 14.1186 13.525 14.1186 13.84V15.91C14.1186 16.225 14.0411 16.5025 13.8861 16.7425C13.7311 16.9825 13.5111 17.17 13.2261 17.305C12.9461 17.435 12.6186 17.5 12.2436 17.5H10.4061ZM11.3361 16.5475C11.3361 16.5775 11.3511 16.5925 11.3811 16.5925H12.2811C12.5111 16.5925 12.6961 16.515 12.8361 16.36C12.9811 16.205 13.0561 15.9975 13.0611 15.7375V14.0125C13.0611 13.7525 12.9886 13.545 12.8436 13.39C12.7036 13.235 12.5136 13.1575 12.2736 13.1575H11.3811C11.3511 13.1575 11.3361 13.1725 11.3361 13.2025V16.5475Z" fill="white"/>
<path d="M7.97096 12.2422C8.30096 12.2422 8.59096 12.3097 8.84096 12.4447C9.09096 12.5797 9.28346 12.7722 9.41846 13.0222C9.55846 13.2672 9.62846 13.5497 9.62846 13.8697C9.62846 14.1847 9.55596 14.4622 9.41096 14.7022C9.27096 14.9422 9.07096 15.1297 8.81096 15.2647C8.55596 15.3947 8.26096 15.4597 7.92596 15.4597H6.86846C6.83846 15.4597 6.82346 15.4747 6.82346 15.5047V17.3722C6.82346 17.4572 6.78096 17.4997 6.69596 17.4997H5.89346C5.80846 17.4997 5.76596 17.4572 5.76596 17.3722V12.3697C5.76596 12.2847 5.80846 12.2422 5.89346 12.2422H7.97096ZM7.81346 14.6122C8.04346 14.6122 8.22846 14.5472 8.36846 14.4172C8.50846 14.2822 8.57846 14.1072 8.57846 13.8922C8.57846 13.6722 8.50846 13.4947 8.36846 13.3597C8.22846 13.2247 8.04346 13.1572 7.81346 13.1572H6.86846C6.83846 13.1572 6.82346 13.1722 6.82346 13.2022V14.5672C6.82346 14.5972 6.83846 14.6122 6.86846 14.6122H7.81346Z" fill="white"/>
</g>
<defs>
<clipPath id="clip0_1329_13787">
<rect width="24" height="24" fill="white" transform="translate(0 0.5)"/>
</clipPath>
</defs>
</svg>
