<svg width="14" height="14" viewBox="0 0 14 14" fill="none" xmlns="http://www.w3.org/2000/svg">
<g id="interactive-button/refresh">
<path id="Vector" fill-rule="evenodd" clip-rule="evenodd" d="M7 2.91667C4.74484 2.91667 2.91667 4.74484 2.91667 7C2.91667 9.25516 4.74484 11.0833 7 11.0833C8.90187 11.0833 10.5014 9.78256 10.9547 8.02127L12.0846 8.31207C11.5018 10.5763 9.44709 12.25 7 12.25C4.1005 12.25 1.75 9.89949 1.75 7C1.75 4.1005 4.1005 1.75 7 1.75C8.64985 1.75 10.1212 2.51093 11.0833 3.70007V2.33333H12.25V5.83333H8.75V4.66667H10.3516C9.61334 3.6083 8.38698 2.91667 7 2.91667Z" fill="#141CEB"/>
</g>
</svg>
