<svg width="14" height="14" viewBox="0 0 14 14" fill="none" xmlns="http://www.w3.org/2000/svg">
<g id="interactive-button/search">
<path id="Vector" fill-rule="evenodd" clip-rule="evenodd" d="M9.23318 3.45835C7.63854 1.86371 5.05311 1.86371 3.45847 3.45835C1.86383 5.05299 1.86383 7.63841 3.45847 9.23306C5.05311 10.8277 7.63854 10.8277 9.23318 9.23306C10.8278 7.63841 10.8278 5.05299 9.23318 3.45835ZM2.63351 2.63339C4.68377 0.58314 8.00788 0.58314 10.0581 2.63339C11.969 4.54422 12.0989 7.56156 10.448 9.62288L12.533 11.7079L11.7081 12.5329L9.623 10.4478C7.56168 12.0988 4.54435 11.9688 2.63351 10.058C0.583262 8.00776 0.583262 4.68364 2.63351 2.63339Z" fill="white"/>
</g>
</svg>
